PathFileType	4	(X/Y/Z)	/Users/niels/Desktop/University/Third Semester/Perception and Action/Exam/Gymnastics Motion Tracking/Code for Gym Tracking/Analyzed Data/Start Salto/stsalto_good_id16_1_Sports2D/stsalto_good_id16_1_Sports2D_px_person00.trc
DataRate	CameraRate	NumFrames	NumMarkers	Units	OrigDataRate	OrigDataStartFrame	OrigNumFrames
29.837837837837835	29.837837837837835	11	22	m	29.837837837837835	115	185
Frame#	Time	Hip			RHip			RKnee			RAnkle			RBigToe			RSmallToe			RHeel			LHip			LKnee			LAnkle			LBigToe			LSmallToe			LHeel			Neck			Head			Nose			RShoulder			RElbow			RWrist			LShoulder			LElbow			LWrist		
		X1	Y1	Z1	X2	Y2	Z2	X3	Y3	Z3	X4	Y4	Z4	X5	Y5	Z5	X6	Y6	Z6	X7	Y7	Z7	X8	Y8	Z8	X9	Y9	Z9	X10	Y10	Z10	X11	Y11	Z11	X12	Y12	Z12	X13	Y13	Z13	X14	Y14	Z14	X15	Y15	Z15	X16	Y16	Z16	X17	Y17	Z17	X18	Y18	Z18	X19	Y19	Z19	X20	Y20	Z20	X21	Y21	Z21	X22	Y22	Z22
115	3.854166666666667	1.4091523335136749	-0.5084348145533978	0.0	1.4014987078847156	-0.5200088946682981	0.0	1.4615923621764975	-0.6473001430655955	0.0	1.454345776873144	-0.7816556891811041	0.0	1.5038896323827373	-0.8036364633950159	0.0	1.4860197973307863	-0.8111608978596722	0.0	1.4417368085570876	-0.8008112193489435	0.0	1.4270934614995199	-0.5057016619128054	0.0	1.538909194622457	-0.5348865733987398	0.0	1.6001805020009612	-0.6463006312998351	0.0	1.6543844283970806	-0.6659726240068792	0.0	1.6522041923850495	-0.6605638665854775	0.0	1.5979697796584587	-0.6696671167482777	0.0	1.3293433550953633	-0.3666413539084511	0.0	1.3325955652054622	-0.2810459479432939	0.0	1.3600211858652071	-0.32606146188326746	0.0	1.31947847492226	-0.3761186484553962	0.0	1.2784641267899515	-0.37694505749608465	0.0	1.2918173988147248	-0.32730522754470776	0.0	1.3325415677763166	-0.3749734605752046	0.0	1.265149402480247	-0.36450124553927593	0.0	1.2335770571325062	-0.35530235024275414	0.0
116	3.88768115942029	1.4164841069790965	-0.5154326033094591	0.0	1.4071545756888957	-0.5253562157129684	0.0	1.462630917193939	-0.6550882930596411	0.0	1.4521693785273229	-0.7884298225379734	0.0	1.497365793336674	-0.8066996865913353	0.0	1.4796329984779546	-0.8143199916297806	0.0	1.440358357094218	-0.8075181718556793	0.0	1.4344920694082244	-0.5128272991036879	0.0	1.547377490715568	-0.5497421961371093	0.0	1.6005682709384743	-0.6655310361376702	0.0	1.6529450397454044	-0.6880520147629015	0.0	1.6513037027878459	-0.6826015487012688	0.0	1.5963614155527937	-0.68779811544201	0.0	1.342830615042748	-0.3715196594616976	0.0	1.3506688293267046	-0.2854290417641694	0.0	1.3766458773097476	-0.3301344574136999	0.0	1.3332590533958801	-0.380748031571075	0.0	1.2942214851174314	-0.3885214957895199	0.0	1.3214649992582856	-0.3449842826233061	0.0	1.3405710959802974	-0.379395760283482	0.0	1.276601741746225	-0.3754041225934861	0.0	1.2386199994867992	-0.3626591961708658	0.0
117	3.9211956521739135	1.4236312757445777	-0.5219864889218934	0.0	1.4127629586339463	-0.5302533536818967	0.0	1.4649188769245909	-0.6616342750626282	0.0	1.4512503168733246	-0.7936385584392082	0.0	1.4908919897349293	-0.8090403745968546	0.0	1.473157742162687	-0.8164261379321195	0.0	1.4401669319937758	-0.8121763974728143	0.0	1.4416245144308706	-0.5193129494494995	0.0	1.5549779721319186	-0.5643265429416161	0.0	1.6004717835451348	-0.6836174495691947	0.0	1.6508903919748252	-0.708458866950674	0.0	1.649816672491254	-0.70295600495255	0.0	1.594514643559608	-0.7045276147577528	0.0	1.3560406548415043	-0.3756691167213622	0.0	1.3682922124551489	-0.2892161284678075	0.0	1.3930436941631967	-0.33323954222500185	0.0	1.3471099296640232	-0.38499426791025126	0.0	1.3088422193977731	-0.39800597717743574	0.0	1.3524692734996708	-0.3628285263024472	0.0	1.3462481711847634	-0.3833292311597504	0.0	1.2868915671377708	-0.3877962482038673	0.0	1.2425119325563345	-0.3718463958313166	0.0
118	3.9547101449275366	1.4307408695097803	-0.5282579262455506	0.0	1.418878568764807	-0.5348843445921602	0.0	1.4689729798717979	-0.6670849620561095	0.0	1.4513213800940714	-0.7973531750506423	0.0	1.4856324811854988	-0.8109050538121693	0.0	1.4677189829649768	-0.8178523679017058	0.0	1.4405844498116607	-0.8150364333873089	0.0	1.4484175350330968	-0.5254144935423013	0.0	1.561352874958534	-0.5786324686537131	0.0	1.5998408134179818	-0.7005992540366562	0.0	1.648294975088016	-0.7273894106329541	0.0	1.6476557612936071	-0.7217815925715083	0.0	1.592603756086368	-0.7201698211487405	0.0	1.369090949991236	-0.37883869900309547	0.0	1.384954813214735	-0.29223600263531846	0.0	1.408666660909925	-0.33550466920602817	0.0	1.360762894558992	-0.3888433014073426	0.0	1.3223251972229044	-0.4060976934524701	0.0	1.3811018934429469	-0.3792117004303698	0.0	1.3518684960678187	-0.3868965689588312	0.0	1.2970627619557635	-0.3998505549311609	0.0	1.2475623637955437	-0.382668996152156	0.0
119	3.9882246376811596	1.4380310330123764	-0.5343225770025298	0.0	1.4260859353516833	-0.5392893400574739	0.0	1.4752511706440687	-0.671616015851758	0.0	1.4520784985299975	-0.7996675793196063	0.0	1.4824237011372818	-0.8123252283677287	0.0	1.4642687700658101	-0.818770181598432	0.0	1.4411800576885183	-0.8163753690908183	0.0	1.4547364911974099	-0.5313695230652162	0.0	1.5662942958140393	-0.5927572832788071	0.0	1.5987391404224276	-0.7168084455606699	0.0	1.6454872552525517	-0.7449419771982826	0.0	1.6449154811106959	-0.7392273114122877	0.0	1.5907955326660101	-0.7352784295660155	0.0	1.3823102092501218	-0.3809774048437974	0.0	1.4007291440611527	-0.2945304942531112	0.0	1.4235860459433392	-0.3370461471042975	0.0	1.3748261583542265	-0.3922531886255218	0.0	1.3382430383222168	-0.41364938921264527	0.0	1.405424389889956	-0.39336165493848535	0.0	1.3593247493764404	-0.390339305782589	0.0	1.308043641494836	-0.4105758880558111	0.0	1.255242993527893	-0.3950494752177017	0.0
120	4.021739130434783	1.4457237430325711	-0.5401150743324377	0.0	1.434871924648535	-0.5433386359579588	0.0	1.4839416507083292	-0.6754566968941716	0.0	1.4532274677778916	-0.8006539595781605	0.0	1.481452056098979	-0.8132857169098511	0.0	1.4632411286847211	-0.8192410654043353	0.0	1.4416611753066926	-0.8163809782484671	0.0	1.4603795919669058	-0.5372787917407986	0.0	1.569813783656997	-0.6067653904919341	0.0	1.5972979120267887	-0.7324903444568598	0.0	1.6428513284829378	-0.7608634361735571	0.0	1.6417691428607195	-0.7552564605837352	0.0	1.589190344846346	-0.7502431203440184	0.0	1.3959834738669616	-0.3822667355151385	0.0	1.416309585029717	-0.29644467544237874	0.0	1.4383528908656733	-0.33794777890686073	0.0	1.3904491063558684	-0.39498215238970064	0.0	1.3607611447810395	-0.4212055146983172	0.0	1.4258218667835627	-0.40547519908951485	0.0	1.3691363489460686	-0.3938526716218818	0.0	1.3202945382668916	-0.42005574314570804	0.0	1.2659430350819	-0.40895000112376423	0.0
121	4.055253623188406	1.453844998243241	-0.5453499177577344	0.0	1.4453539730645564	-0.5466944395518742	0.0	1.494795267016534	-0.6787083330123155	0.0	1.4545575920364515	-0.8002960158443094	0.0	1.4824975470995487	-0.8138051459549944	0.0	1.4646956628162857	-0.8193008820236626	0.0	1.4418659921296826	-0.815118428509028	0.0	1.4650318686165014	-0.5429074791406716	0.0	1.5720468637348801	-0.6203318691126429	0.0	1.5956884168668384	-0.7472440186300181	0.0	1.640574183360132	-0.7743887733318668	0.0	1.6383207150839818	-0.7693563180588687	0.0	1.5878388834345203	-0.7647069666259166	0.0	1.409979603897225	-0.3830218678315643	0.0	1.4322287167449876	-0.2984411860454807	0.0	1.4532348675869136	-0.3383870615670553	0.0	1.4081650040682159	-0.39667975823972346	0.0	1.3902523045877349	-0.4287260243772166	0.0	1.4435442688048226	-0.41630045701356855	0.0	1.380733895215931	-0.397462962095643	0.0	1.3337621982889487	-0.42876828347813134	0.0	1.2792658000515214	-0.4239999995817989	0.0
122	4.088768115942029	1.4622362258089334	-0.5496490844657981	0.0	1.4571880668747228	-0.5489599516291281	0.0	1.5072318508387745	-0.6812589934338232	0.0	1.4560375149468965	-0.7985537002553712	0.0	1.4851604189328558	-0.8139603705004052	0.0	1.4683444512061954	-0.8189746823463616	0.0	1.4418445616275188	-0.8125970773593378	0.0	1.4685274419729828	-0.5477556202817212	0.0	1.5732914489334502	-0.6328445418483681	0.0	1.5941239336907467	-0.7602247698289408	0.0	1.6385934824567454	-0.7848232054464211	0.0	1.6346313893990765	-0.7808577323129879	0.0	1.5867979290804195	-0.7776955301388518	0.0	1.4238923825443273	-0.3835499304111464	0.0	1.4483780108756394	-0.3006971370120182	0.0	1.4679771844284786	-0.33864705629801084	0.0	1.4272944344036427	-0.39723814164406	0.0	1.4222887799141277	-0.4356501775661806	0.0	1.4598997169019599	-0.4270137463009607	0.0	1.3932671889551542	-0.40098937967489373	0.0	1.3481466989338864	-0.4370144905384152	0.0	1.2945965905960526	-0.4395216510877163	0.0
123	4.122282608695652	1.470719481629704	-0.5527246041811269	0.0	1.4697209702210698	-0.549942237254998	0.0	1.520603957729275	-0.682870454567586	0.0	1.4578183680818757	-0.7954362751329356	0.0	1.4889037209930698	-0.8138805880776322	0.0	1.4734734099377733	-0.818279629307079	0.0	1.4419069060347833	-0.8087844479257631	0.0	1.4711996281355395	-0.551345417846562	0.0	1.5740624203592863	-0.6437410349630401	0.0	1.5928367013118885	-0.7706964081754099	0.0	1.6368020826326677	-0.7921608251951973	0.0	1.6308996813973569	-0.7894456812832923	0.0	1.5861196949304541	-0.7881881160311053	0.0	1.4374025343434518	-0.38400732175989294	0.0	1.4640861507917604	-0.30291861423170763	0.0	1.4821140001203372	-0.33898228633770494	0.0	1.4463959367033792	-0.3969627052942181	0.0	1.450827353888237	-0.4414228517352124	0.0	1.4759252144392667	-0.43874123511005464	0.0	1.4061131934101985	-0.40410288241660547	0.0	1.3630963986959816	-0.4447994389523499	0.0	1.3115214290358936	-0.45481384032634947	0.0
124	4.155797101449275	1.4792765160935155	-0.5544786857864613	0.0	1.482385249086684	-0.5497806115998926	0.0	1.5344951037649353	-0.6833855368726289	0.0	1.4601501542841564	-0.7909943106797965	0.0	1.4931450532818586	-0.8136651131679057	0.0	1.4791600696454745	-0.8172134387237369	0.0	1.4425639288828405	-0.8035535545699288	0.0	1.4739160197160714	-0.5534887054646181	0.0	1.5750303468361475	-0.6527204008986205	0.0	1.5920087140890016	-0.7783492564655056	0.0	1.6352654482093465	-0.7969971318754027	0.0	1.6274982488203857	-0.7952684913906495	0.0	1.5857904810633638	-0.7956059980433022	0.0	1.4505019497254212	-0.3843461903317057	0.0	1.4786013522723993	-0.30455749198050636	0.0	1.495431381064476	-0.33949482174363826	0.0	1.4644372733072986	-0.39641176993401783	0.0	1.4727426150695961	-0.446029149049779	0.0	1.4922790173682874	-0.45203014920837986	0.0	1.4189651979308513	-0.406507131097653	0.0	1.3783686033855709	-0.45203905950269535	0.0	1.3299742424952248	-0.4694838251842193	0.0
125	4.189311594202899	1.4880532449415842	-0.5550070506838469	0.0	1.4949511400037383	-0.5487971056430659	0.0	1.5487777721548723	-0.6828751050548171	0.0	1.4632907813927993	-0.7853237767726096	0.0	1.4973816759450396	-0.8132687954619913	0.0	1.4846709823972284	-0.815691632421306	0.0	1.444372410523887	-0.7967445279567082	0.0	1.477670261040336	-0.554308517214231	0.0	1.5768656192956425	-0.6597671575767657	0.0	1.5917123520518695	-0.7833194883414435	0.0	1.6342007829212133	-0.8000377466128958	0.0	1.6247973099637303	-0.7987436947381306	0.0	1.5857314304813033	-0.7999720395816768	0.0	1.4634829984432218	-0.38439514787262796	0.0	1.491642041607332	-0.30516272158705415	0.0	1.508171766240521	-0.34007350681397047	0.0	1.4814263799309013	-0.3960898522481859	0.0	1.4890154371598714	-0.4499360847136274	0.0	1.5094771157089666	-0.4668725372462619	0.0	1.4317900403045012	-0.4080797968803353	0.0	1.3940162004693788	-0.4587134530827562	0.0	1.3501717876015968	-0.483526323481729	0.0
